STARTFONT 2.1
FONT -FontForge-Bitstream Vera Sans-Book-R-Normal-Sans--10-100-72-72-P-59-ISO10646-1
SIZE 10 72 72
FONTBOUNDINGBOX 13 9 -1 -3
COMMENT "Generated by fontforge, http://fontforge.sourceforge.net"
STARTPROPERTIES 27
FONT_NAME "BitstreamVeraSans-Roman"
FONT_ASCENT 8
FONT_DESCENT 2
UNDERLINE_POSITION -213
UNDERLINE_THICKNESS 143
QUAD_WIDTH 10
X_HEIGHT 6
CAP_HEIGHT 4
FONTNAME_REGISTRY ""
FAMILY_NAME "Bitstream Vera Sans"
FOUNDRY "FontForge"
WEIGHT_NAME "Book"
SETWIDTH_NAME "Normal"
SLANT "R"
ADD_STYLE_NAME "Sans-"
PIXEL_SIZE 10
POINT_SIZE 100
RESOLUTION_X 72
RESOLUTION_Y 72
RESOLUTION 72
SPACING "P"
AVERAGE_WIDTH 59
CHARSET_REGISTRY "ISO10646"
CHARSET_ENCODING "-1"
CHARSET_COLLECTIONS "ASCII ISO8859-9 ISO10646-1"
FULL_NAME "Bitstream Vera Sans"
COPYRIGHT "Copyright (c) 2003 by Bitstream, Inc. All Rights Reserved."
ENDPROPERTIES
CHARS 268
STARTCHAR space
ENCODING 32
SWIDTH 317 0
DWIDTH 3 0
BBX 1 1 0 0
BITMAP
00
ENDCHAR
STARTCHAR exclam
ENCODING 33
SWIDTH 400 0
DWIDTH 4 0
BBX 1 7 1 0
BITMAP
80
80
80
80
00
00
80
ENDCHAR
STARTCHAR quotedbl
ENCODING 34
SWIDTH 459 0
DWIDTH 5 0
BBX 3 3 1 4
BITMAP
A0
A0
A0
ENDCHAR
STARTCHAR numbersign
ENCODING 35
SWIDTH 837 0
DWIDTH 8 0
BBX 6 7 1 0
BITMAP
20
28
FC
48
FC
50
50
ENDCHAR
STARTCHAR dollar
ENCODING 36
SWIDTH 636 0
DWIDTH 6 0
BBX 4 6 1 0
BITMAP
F0
C0
C0
70
50
F0
ENDCHAR
STARTCHAR percent
ENCODING 37
SWIDTH 950 0
DWIDTH 10 0
BBX 9 7 0 0
BITMAP
6200
9400
9400
6800
1780
1480
2300
ENDCHAR
STARTCHAR ampersand
ENCODING 38
SWIDTH 779 0
DWIDTH 8 0
BBX 6 7 1 0
BITMAP
70
80
40
E4
94
88
F4
ENDCHAR
STARTCHAR quotesingle
ENCODING 39
SWIDTH 274 0
DWIDTH 3 0
BBX 1 3 1 4
BITMAP
80
80
80
ENDCHAR
STARTCHAR parenleft
ENCODING 40
SWIDTH 390 0
DWIDTH 4 0
BBX 2 8 1 -1
BITMAP
40
80
80
80
80
80
80
40
ENDCHAR
STARTCHAR parenright
ENCODING 41
SWIDTH 390 0
DWIDTH 4 0
BBX 2 8 1 -1
BITMAP
80
80
40
40
40
40
80
80
ENDCHAR
STARTCHAR asterisk
ENCODING 42
SWIDTH 500 0
DWIDTH 5 0
BBX 5 5 0 2
BITMAP
20
A8
70
F0
20
ENDCHAR
STARTCHAR plus
ENCODING 43
SWIDTH 837 0
DWIDTH 8 0
BBX 6 6 1 0
BITMAP
10
10
10
FC
10
10
ENDCHAR
STARTCHAR comma
ENCODING 44
SWIDTH 317 0
DWIDTH 3 0
BBX 1 2 1 -1
BITMAP
80
80
ENDCHAR
STARTCHAR hyphen
ENCODING 45
SWIDTH 360 0
DWIDTH 4 0
BBX 3 1 0 2
BITMAP
E0
ENDCHAR
STARTCHAR period
ENCODING 46
SWIDTH 317 0
DWIDTH 3 0
BBX 1 1 1 0
BITMAP
80
ENDCHAR
STARTCHAR slash
ENCODING 47
SWIDTH 336 0
DWIDTH 3 0
BBX 3 8 0 -1
BITMAP
20
20
20
40
40
40
80
80
ENDCHAR
STARTCHAR zero
ENCODING 48
SWIDTH 636 0
DWIDTH 6 0
BBX 5 7 1 0
BITMAP
60
90
90
88
88
90
70
ENDCHAR
STARTCHAR one
ENCODING 49
SWIDTH 636 0
DWIDTH 6 0
BBX 4 7 1 0
BITMAP
60
20
20
20
20
20
F0
ENDCHAR
STARTCHAR two
ENCODING 50
SWIDTH 636 0
DWIDTH 6 0
BBX 4 7 1 0
BITMAP
60
10
10
10
20
40
F0
ENDCHAR
STARTCHAR three
ENCODING 51
SWIDTH 636 0
DWIDTH 6 0
BBX 4 7 1 0
BITMAP
E0
10
10
60
10
10
F0
ENDCHAR
STARTCHAR four
ENCODING 52
SWIDTH 636 0
DWIDTH 6 0
BBX 5 7 0 0
BITMAP
18
28
28
48
88
78
08
ENDCHAR
STARTCHAR five
ENCODING 53
SWIDTH 636 0
DWIDTH 6 0
BBX 4 7 1 0
BITMAP
F0
80
80
70
10
10
F0
ENDCHAR
STARTCHAR six
ENCODING 54
SWIDTH 636 0
DWIDTH 6 0
BBX 5 7 1 0
BITMAP
30
C0
80
F0
88
88
70
ENDCHAR
STARTCHAR seven
ENCODING 55
SWIDTH 636 0
DWIDTH 6 0
BBX 4 7 1 0
BITMAP
F0
10
10
20
20
40
40
ENDCHAR
STARTCHAR eight
ENCODING 56
SWIDTH 636 0
DWIDTH 6 0
BBX 5 7 1 0
BITMAP
60
90
90
60
90
88
F0
ENDCHAR
STARTCHAR nine
ENCODING 57
SWIDTH 636 0
DWIDTH 6 0
BBX 5 7 1 0
BITMAP
60
90
90
98
70
10
E0
ENDCHAR
STARTCHAR colon
ENCODING 58
SWIDTH 336 0
DWIDTH 3 0
BBX 1 5 1 0
BITMAP
80
00
00
00
80
ENDCHAR
STARTCHAR semicolon
ENCODING 59
SWIDTH 336 0
DWIDTH 3 0
BBX 1 6 1 -1
BITMAP
80
00
00
00
80
80
ENDCHAR
STARTCHAR less
ENCODING 60
SWIDTH 837 0
DWIDTH 8 0
BBX 6 4 1 1
BITMAP
0C
70
C0
38
ENDCHAR
STARTCHAR equal
ENCODING 61
SWIDTH 837 0
DWIDTH 8 0
BBX 6 3 1 1
BITMAP
FC
00
78
ENDCHAR
STARTCHAR greater
ENCODING 62
SWIDTH 837 0
DWIDTH 8 0
BBX 6 4 1 1
BITMAP
C0
38
0C
70
ENDCHAR
STARTCHAR question
ENCODING 63
SWIDTH 530 0
DWIDTH 5 0
BBX 2 7 2 0
BITMAP
C0
40
40
80
80
00
80
ENDCHAR
STARTCHAR at
ENCODING 64
SWIDTH 1000 0
DWIDTH 10 0
BBX 9 8 0 -2
BITMAP
3F00
4080
5E80
9280
9280
4F00
2100
1E00
ENDCHAR
STARTCHAR A
ENCODING 65
SWIDTH 684 0
DWIDTH 7 0
BBX 6 7 0 0
BITMAP
10
30
28
48
44
7C
84
ENDCHAR
STARTCHAR B
ENCODING 66
SWIDTH 686 0
DWIDTH 7 0
BBX 5 7 1 0
BITMAP
F0
88
88
F0
88
88
F0
ENDCHAR
STARTCHAR C
ENCODING 67
SWIDTH 698 0
DWIDTH 7 0
BBX 5 7 1 0
BITMAP
30
C0
80
80
80
80
78
ENDCHAR
STARTCHAR D
ENCODING 68
SWIDTH 770 0
DWIDTH 8 0
BBX 6 7 1 0
BITMAP
F0
88
84
84
84
8C
F8
ENDCHAR
STARTCHAR E
ENCODING 69
SWIDTH 631 0
DWIDTH 6 0
BBX 5 7 1 0
BITMAP
F0
80
80
F0
80
80
F8
ENDCHAR
STARTCHAR F
ENCODING 70
SWIDTH 575 0
DWIDTH 6 0
BBX 4 7 1 0
BITMAP
F0
80
80
F0
80
80
80
ENDCHAR
STARTCHAR G
ENCODING 71
SWIDTH 774 0
DWIDTH 8 0
BBX 6 7 1 0
BITMAP
30
CC
80
80
8C
84
78
ENDCHAR
STARTCHAR H
ENCODING 72
SWIDTH 751 0
DWIDTH 8 0
BBX 5 7 1 0
BITMAP
88
88
88
F8
88
88
88
ENDCHAR
STARTCHAR I
ENCODING 73
SWIDTH 294 0
DWIDTH 3 0
BBX 1 7 1 0
BITMAP
80
80
80
80
80
80
80
ENDCHAR
STARTCHAR J
ENCODING 74
SWIDTH 294 0
DWIDTH 3 0
BBX 3 9 -1 -2
BITMAP
20
20
20
20
20
20
20
20
C0
ENDCHAR
STARTCHAR K
ENCODING 75
SWIDTH 655 0
DWIDTH 7 0
BBX 5 7 1 0
BITMAP
88
90
A0
C0
A0
90
88
ENDCHAR
STARTCHAR L
ENCODING 76
SWIDTH 557 0
DWIDTH 6 0
BBX 4 7 1 0
BITMAP
80
80
80
80
80
80
F0
ENDCHAR
STARTCHAR M
ENCODING 77
SWIDTH 862 0
DWIDTH 9 0
BBX 7 7 1 0
BITMAP
86
CA
CA
AA
B2
92
82
ENDCHAR
STARTCHAR N
ENCODING 78
SWIDTH 748 0
DWIDTH 7 0
BBX 5 7 1 0
BITMAP
88
C8
C8
A8
98
98
88
ENDCHAR
STARTCHAR O
ENCODING 79
SWIDTH 787 0
DWIDTH 8 0
BBX 6 7 1 0
BITMAP
30
C8
84
84
84
84
78
ENDCHAR
STARTCHAR P
ENCODING 80
SWIDTH 603 0
DWIDTH 6 0
BBX 5 7 1 0
BITMAP
E0
90
88
90
E0
80
80
ENDCHAR
STARTCHAR Q
ENCODING 81
SWIDTH 787 0
DWIDTH 8 0
BBX 6 8 1 -1
BITMAP
30
C8
84
84
84
84
78
08
ENDCHAR
STARTCHAR R
ENCODING 82
SWIDTH 694 0
DWIDTH 7 0
BBX 5 7 1 0
BITMAP
E0
90
88
F0
90
88
88
ENDCHAR
STARTCHAR S
ENCODING 83
SWIDTH 634 0
DWIDTH 6 0
BBX 5 7 1 0
BITMAP
70
80
80
F0
18
08
F0
ENDCHAR
STARTCHAR T
ENCODING 84
SWIDTH 610 0
DWIDTH 6 0
BBX 6 7 0 0
BITMAP
FC
20
20
20
20
20
20
ENDCHAR
STARTCHAR U
ENCODING 85
SWIDTH 731 0
DWIDTH 7 0
BBX 5 7 1 0
BITMAP
88
88
88
88
88
88
70
ENDCHAR
STARTCHAR V
ENCODING 86
SWIDTH 684 0
DWIDTH 7 0
BBX 7 7 0 0
BITMAP
82
44
44
48
28
28
10
ENDCHAR
STARTCHAR W
ENCODING 87
SWIDTH 988 0
DWIDTH 10 0
BBX 9 7 0 0
BITMAP
8880
4C80
4C80
5480
5500
3300
2300
ENDCHAR
STARTCHAR X
ENCODING 88
SWIDTH 685 0
DWIDTH 7 0
BBX 5 7 1 0
BITMAP
88
90
50
20
50
90
88
ENDCHAR
STARTCHAR Y
ENCODING 89
SWIDTH 610 0
DWIDTH 6 0
BBX 6 7 0 0
BITMAP
84
48
30
30
20
20
20
ENDCHAR
STARTCHAR Z
ENCODING 90
SWIDTH 685 0
DWIDTH 7 0
BBX 6 7 0 0
BITMAP
7C
04
08
10
20
40
FC
ENDCHAR
STARTCHAR bracketleft
ENCODING 91
SWIDTH 390 0
DWIDTH 4 0
BBX 2 8 1 -1
BITMAP
C0
80
80
80
80
80
80
80
ENDCHAR
STARTCHAR backslash
ENCODING 92
SWIDTH 336 0
DWIDTH 3 0
BBX 3 8 0 -1
BITMAP
80
80
40
40
40
20
20
20
ENDCHAR
STARTCHAR bracketright
ENCODING 93
SWIDTH 390 0
DWIDTH 4 0
BBX 2 8 1 -1
BITMAP
C0
40
40
40
40
40
40
40
ENDCHAR
STARTCHAR asciicircum
ENCODING 94
SWIDTH 837 0
DWIDTH 8 0
BBX 6 3 1 4
BITMAP
30
68
84
ENDCHAR
STARTCHAR underscore
ENCODING 95
SWIDTH 500 0
DWIDTH 5 0
BBX 3 1 1 -3
BITMAP
E0
ENDCHAR
STARTCHAR grave
ENCODING 96
SWIDTH 500 0
DWIDTH 5 0
BBX 1 1 3 5
BITMAP
00
ENDCHAR
STARTCHAR a
ENCODING 97
SWIDTH 612 0
DWIDTH 6 0
BBX 5 5 0 0
BITMAP
70
08
78
88
78
ENDCHAR
STARTCHAR b
ENCODING 98
SWIDTH 634 0
DWIDTH 6 0
BBX 5 7 1 0
BITMAP
80
80
F0
88
88
88
F0
ENDCHAR
STARTCHAR c
ENCODING 99
SWIDTH 549 0
DWIDTH 5 0
BBX 5 5 0 0
BITMAP
78
40
80
40
78
ENDCHAR
STARTCHAR d
ENCODING 100
SWIDTH 634 0
DWIDTH 6 0
BBX 5 7 0 0
BITMAP
08
08
78
48
88
48
78
ENDCHAR
STARTCHAR e
ENCODING 101
SWIDTH 615 0
DWIDTH 6 0
BBX 5 5 1 0
BITMAP
F0
90
F8
80
70
ENDCHAR
STARTCHAR f
ENCODING 102
SWIDTH 352 0
DWIDTH 4 0
BBX 4 7 0 0
BITMAP
70
40
E0
40
40
40
40
ENDCHAR
STARTCHAR g
ENCODING 103
SWIDTH 634 0
DWIDTH 6 0
BBX 5 7 0 -2
BITMAP
78
48
88
48
78
08
70
ENDCHAR
STARTCHAR h
ENCODING 104
SWIDTH 633 0
DWIDTH 6 0
BBX 4 7 1 0
BITMAP
80
80
F0
90
90
90
90
ENDCHAR
STARTCHAR i
ENCODING 105
SWIDTH 277 0
DWIDTH 3 0
BBX 1 7 1 0
BITMAP
80
00
80
80
80
80
80
ENDCHAR
STARTCHAR j
ENCODING 106
SWIDTH 277 0
DWIDTH 3 0
BBX 2 9 0 -2
BITMAP
40
00
40
40
40
40
40
40
80
ENDCHAR
STARTCHAR k
ENCODING 107
SWIDTH 579 0
DWIDTH 6 0
BBX 4 7 1 0
BITMAP
80
80
90
A0
C0
A0
90
ENDCHAR
STARTCHAR l
ENCODING 108
SWIDTH 277 0
DWIDTH 3 0
BBX 1 7 1 0
BITMAP
80
80
80
80
80
80
80
ENDCHAR
STARTCHAR m
ENCODING 109
SWIDTH 974 0
DWIDTH 10 0
BBX 8 5 1 0
BITMAP
F6
99
91
91
91
ENDCHAR
STARTCHAR n
ENCODING 110
SWIDTH 633 0
DWIDTH 6 0
BBX 4 5 1 0
BITMAP
F0
90
90
90
90
ENDCHAR
STARTCHAR o
ENCODING 111
SWIDTH 611 0
DWIDTH 6 0
BBX 5 5 0 0
BITMAP
78
48
88
48
78
ENDCHAR
STARTCHAR p
ENCODING 112
SWIDTH 634 0
DWIDTH 6 0
BBX 5 7 1 -2
BITMAP
F0
88
88
88
F0
80
80
ENDCHAR
STARTCHAR q
ENCODING 113
SWIDTH 634 0
DWIDTH 6 0
BBX 5 7 0 -2
BITMAP
78
48
88
48
78
08
08
ENDCHAR
STARTCHAR r
ENCODING 114
SWIDTH 411 0
DWIDTH 4 0
BBX 3 5 1 0
BITMAP
E0
80
80
80
80
ENDCHAR
STARTCHAR s
ENCODING 115
SWIDTH 520 0
DWIDTH 5 0
BBX 5 5 0 0
BITMAP
70
80
70
08
70
ENDCHAR
STARTCHAR t
ENCODING 116
SWIDTH 392 0
DWIDTH 4 0
BBX 4 6 0 0
BITMAP
40
F0
40
40
40
70
ENDCHAR
STARTCHAR u
ENCODING 117
SWIDTH 633 0
DWIDTH 6 0
BBX 4 5 1 0
BITMAP
90
90
90
90
F0
ENDCHAR
STARTCHAR v
ENCODING 118
SWIDTH 591 0
DWIDTH 6 0
BBX 5 5 0 0
BITMAP
88
48
48
30
30
ENDCHAR
STARTCHAR w
ENCODING 119
SWIDTH 817 0
DWIDTH 8 0
BBX 6 5 1 0
BITMAP
30
B4
B4
CC
48
ENDCHAR
STARTCHAR x
ENCODING 120
SWIDTH 591 0
DWIDTH 6 0
BBX 4 5 1 0
BITMAP
90
60
40
E0
90
ENDCHAR
STARTCHAR y
ENCODING 121
SWIDTH 591 0
DWIDTH 6 0
BBX 4 7 1 -2
BITMAP
10
90
A0
60
60
40
C0
ENDCHAR
STARTCHAR z
ENCODING 122
SWIDTH 524 0
DWIDTH 5 0
BBX 5 5 0 0
BITMAP
78
10
20
40
F8
ENDCHAR
STARTCHAR braceleft
ENCODING 123
SWIDTH 636 0
DWIDTH 6 0
BBX 4 8 1 -1
BITMAP
30
20
20
20
C0
20
20
20
ENDCHAR
STARTCHAR bar
ENCODING 124
SWIDTH 336 0
DWIDTH 3 0
BBX 1 9 1 -2
BITMAP
80
80
80
80
80
80
80
80
80
ENDCHAR
STARTCHAR braceright
ENCODING 125
SWIDTH 636 0
DWIDTH 6 0
BBX 4 9 1 -2
BITMAP
C0
40
20
20
30
20
20
00
40
ENDCHAR
STARTCHAR asciitilde
ENCODING 126
SWIDTH 837 0
DWIDTH 8 0
BBX 6 2 1 2
BITMAP
40
BC
ENDCHAR
STARTCHAR nonbreakingspace
ENCODING 160
SWIDTH 636 0
DWIDTH 6 0
BBX 1 1 0 0
BITMAP
00
ENDCHAR
STARTCHAR exclamdown
ENCODING 161
SWIDTH 400 0
DWIDTH 4 0
BBX 1 7 1 0
BITMAP
80
00
00
80
80
80
80
ENDCHAR
STARTCHAR cent
ENCODING 162
SWIDTH 636 0
DWIDTH 6 0
BBX 4 7 1 -1
BITMAP
20
70
A0
A0
A0
70
20
ENDCHAR
STARTCHAR sterling
ENCODING 163
SWIDTH 636 0
DWIDTH 6 0
BBX 4 7 1 0
BITMAP
30
40
40
40
60
40
F0
ENDCHAR
STARTCHAR currency
ENCODING 164
SWIDTH 636 0
DWIDTH 6 0
BBX 4 4 1 1
BITMAP
F0
90
90
F0
ENDCHAR
STARTCHAR yen
ENCODING 165
SWIDTH 636 0
DWIDTH 6 0
BBX 6 7 0 0
BITMAP
84
48
28
7C
7C
10
10
ENDCHAR
STARTCHAR brokenbar
ENCODING 166
SWIDTH 336 0
DWIDTH 3 0
BBX 1 8 1 -2
BITMAP
80
80
80
00
80
80
80
80
ENDCHAR
STARTCHAR section
ENCODING 167
SWIDTH 500 0
DWIDTH 5 0
BBX 4 8 0 -1
BITMAP
30
40
60
90
50
30
10
70
ENDCHAR
STARTCHAR dieresis
ENCODING 168
SWIDTH 500 0
DWIDTH 5 0
BBX 3 1 1 6
BITMAP
A0
ENDCHAR
STARTCHAR copyright
ENCODING 169
SWIDTH 1000 0
DWIDTH 10 0
BBX 7 7 1 0
BITMAP
18
66
B2
A2
A2
5A
3C
ENDCHAR
STARTCHAR ordfeminine
ENCODING 170
SWIDTH 471 0
DWIDTH 5 0
BBX 4 5 0 2
BITMAP
60
10
F0
70
70
ENDCHAR
STARTCHAR guillemotleft
ENCODING 171
SWIDTH 611 0
DWIDTH 6 0
BBX 4 3 1 1
BITMAP
50
A0
50
ENDCHAR
STARTCHAR logicalnot
ENCODING 172
SWIDTH 837 0
DWIDTH 8 0
BBX 6 3 1 1
BITMAP
FC
04
04
ENDCHAR
STARTCHAR sfthyphen
ENCODING 173
SWIDTH 360 0
DWIDTH 4 0
BBX 3 1 0 2
BITMAP
E0
ENDCHAR
STARTCHAR registered
ENCODING 174
SWIDTH 1000 0
DWIDTH 10 0
BBX 7 7 1 0
BITMAP
18
66
BA
BA
AA
42
3C
ENDCHAR
STARTCHAR macron
ENCODING 175
SWIDTH 500 0
DWIDTH 5 0
BBX 3 1 1 6
BITMAP
E0
ENDCHAR
STARTCHAR degree
ENCODING 176
SWIDTH 500 0
DWIDTH 5 0
BBX 3 4 1 3
BITMAP
40
A0
A0
40
ENDCHAR
STARTCHAR plusminus
ENCODING 177
SWIDTH 837 0
DWIDTH 8 0
BBX 6 6 1 0
BITMAP
10
10
FC
10
00
FC
ENDCHAR
STARTCHAR twosuperior
ENCODING 178
SWIDTH 400 0
DWIDTH 4 0
BBX 3 5 0 2
BITMAP
60
20
20
C0
40
ENDCHAR
STARTCHAR threesuperior
ENCODING 179
SWIDTH 400 0
DWIDTH 4 0
BBX 3 5 0 2
BITMAP
60
20
20
A0
40
ENDCHAR
STARTCHAR acute
ENCODING 180
SWIDTH 500 0
DWIDTH 5 0
BBX 1 1 2 6
BITMAP
80
ENDCHAR
STARTCHAR mu
ENCODING 181
SWIDTH 636 0
DWIDTH 6 0
BBX 5 7 1 -2
BITMAP
90
90
90
90
E8
80
80
ENDCHAR
STARTCHAR paragraph
ENCODING 182
SWIDTH 636 0
DWIDTH 6 0
BBX 4 8 1 -1
BITMAP
70
F0
F0
F0
30
30
30
30
ENDCHAR
STARTCHAR periodcentered
ENCODING 183
SWIDTH 317 0
DWIDTH 3 0
BBX 1 1 1 3
BITMAP
80
ENDCHAR
STARTCHAR cedilla
ENCODING 184
SWIDTH 500 0
DWIDTH 5 0
BBX 2 1 1 -2
BITMAP
C0
ENDCHAR
STARTCHAR onesuperior
ENCODING 185
SWIDTH 400 0
DWIDTH 4 0
BBX 1 3 1 4
BITMAP
80
80
80
ENDCHAR
STARTCHAR ordmasculine
ENCODING 186
SWIDTH 471 0
DWIDTH 5 0
BBX 4 5 0 2
BITMAP
60
90
90
70
70
ENDCHAR
STARTCHAR guillemotright
ENCODING 187
SWIDTH 611 0
DWIDTH 6 0
BBX 4 3 1 1
BITMAP
A0
50
A0
ENDCHAR
STARTCHAR onequarter
ENCODING 188
SWIDTH 969 0
DWIDTH 10 0
BBX 8 7 1 0
BITMAP
84
84
88
11
17
25
43
ENDCHAR
STARTCHAR onehalf
ENCODING 189
SWIDTH 969 0
DWIDTH 10 0
BBX 8 7 1 0
BITMAP
84
84
88
16
11
22
47
ENDCHAR
STARTCHAR threequarters
ENCODING 190
SWIDTH 969 0
DWIDTH 10 0
BBX 9 7 0 0
BITMAP
6000
2200
2400
A880
4B80
1280
2180
ENDCHAR
STARTCHAR questiondown
ENCODING 191
SWIDTH 530 0
DWIDTH 5 0
BBX 4 7 1 0
BITMAP
40
00
40
40
80
80
F0
ENDCHAR
STARTCHAR Agrave
ENCODING 192
SWIDTH 684 0
DWIDTH 7 0
BBX 6 8 0 0
BITMAP
10
10
30
28
48
44
7C
84
ENDCHAR
STARTCHAR Aacute
ENCODING 193
SWIDTH 684 0
DWIDTH 7 0
BBX 6 8 0 0
BITMAP
10
10
30
28
48
44
7C
84
ENDCHAR
STARTCHAR Acircumflex
ENCODING 194
SWIDTH 684 0
DWIDTH 7 0
BBX 6 8 0 0
BITMAP
38
10
30
28
48
44
7C
84
ENDCHAR
STARTCHAR Atilde
ENCODING 195
SWIDTH 684 0
DWIDTH 7 0
BBX 6 8 0 0
BITMAP
10
10
30
28
48
44
7C
84
ENDCHAR
STARTCHAR Adieresis
ENCODING 196
SWIDTH 684 0
DWIDTH 7 0
BBX 6 8 0 0
BITMAP
28
10
30
28
48
44
7C
84
ENDCHAR
STARTCHAR Aring
ENCODING 197
SWIDTH 684 0
DWIDTH 7 0
BBX 6 8 0 0
BITMAP
38
30
30
28
48
44
7C
84
ENDCHAR
STARTCHAR AE
ENCODING 198
SWIDTH 974 0
DWIDTH 10 0
BBX 9 7 0 0
BITMAP
1F80
2800
2800
2F80
4800
7800
8F80
ENDCHAR
STARTCHAR Ccedilla
ENCODING 199
SWIDTH 698 0
DWIDTH 7 0
BBX 5 9 1 -2
BITMAP
30
C0
80
80
80
80
78
10
30
ENDCHAR
STARTCHAR Egrave
ENCODING 200
SWIDTH 631 0
DWIDTH 6 0
BBX 5 8 1 0
BITMAP
20
F0
80
80
F0
80
80
F8
ENDCHAR
STARTCHAR Eacute
ENCODING 201
SWIDTH 631 0
DWIDTH 6 0
BBX 5 7 1 0
BITMAP
F0
80
80
F0
80
80
F8
ENDCHAR
STARTCHAR Ecircumflex
ENCODING 202
SWIDTH 631 0
DWIDTH 6 0
BBX 5 8 1 0
BITMAP
60
F0
80
80
F0
80
80
F8
ENDCHAR
STARTCHAR Edieresis
ENCODING 203
SWIDTH 631 0
DWIDTH 6 0
BBX 5 8 1 0
BITMAP
50
F0
80
80
F0
80
80
F8
ENDCHAR
STARTCHAR Igrave
ENCODING 204
SWIDTH 294 0
DWIDTH 3 0
BBX 1 8 1 0
BITMAP
80
80
80
80
80
80
80
80
ENDCHAR
STARTCHAR Iacute
ENCODING 205
SWIDTH 294 0
DWIDTH 3 0
BBX 1 8 1 0
BITMAP
80
80
80
80
80
80
80
80
ENDCHAR
STARTCHAR Icircumflex
ENCODING 206
SWIDTH 294 0
DWIDTH 3 0
BBX 3 8 0 0
BITMAP
E0
40
40
40
40
40
40
40
ENDCHAR
STARTCHAR Idieresis
ENCODING 207
SWIDTH 294 0
DWIDTH 3 0
BBX 3 8 0 0
BITMAP
A0
40
40
40
40
40
40
40
ENDCHAR
STARTCHAR Eth
ENCODING 208
SWIDTH 774 0
DWIDTH 8 0
BBX 7 7 0 0
BITMAP
78
44
42
F2
42
46
7C
ENDCHAR
STARTCHAR Ntilde
ENCODING 209
SWIDTH 748 0
DWIDTH 7 0
BBX 5 8 1 0
BITMAP
70
88
C8
C8
A8
98
98
88
ENDCHAR
STARTCHAR Ograve
ENCODING 210
SWIDTH 787 0
DWIDTH 8 0
BBX 6 8 1 0
BITMAP
20
30
C8
84
84
84
84
78
ENDCHAR
STARTCHAR Oacute
ENCODING 211
SWIDTH 787 0
DWIDTH 8 0
BBX 6 8 1 0
BITMAP
20
30
C8
84
84
84
84
78
ENDCHAR
STARTCHAR Ocircumflex
ENCODING 212
SWIDTH 787 0
DWIDTH 8 0
BBX 6 8 1 0
BITMAP
30
30
C8
84
84
84
84
78
ENDCHAR
STARTCHAR Otilde
ENCODING 213
SWIDTH 787 0
DWIDTH 8 0
BBX 6 8 1 0
BITMAP
70
30
C8
84
84
84
84
78
ENDCHAR
STARTCHAR Odieresis
ENCODING 214
SWIDTH 787 0
DWIDTH 8 0
BBX 6 8 1 0
BITMAP
50
30
C8
84
84
84
84
78
ENDCHAR
STARTCHAR multiply
ENCODING 215
SWIDTH 837 0
DWIDTH 8 0
BBX 5 5 2 0
BITMAP
90
60
60
90
08
ENDCHAR
STARTCHAR Oslash
ENCODING 216
SWIDTH 787 0
DWIDTH 8 0
BBX 6 7 1 0
BITMAP
34
C8
94
A4
E4
C4
F8
ENDCHAR
STARTCHAR Ugrave
ENCODING 217
SWIDTH 731 0
DWIDTH 7 0
BBX 5 8 1 0
BITMAP
20
88
88
88
88
88
88
70
ENDCHAR
STARTCHAR Uacute
ENCODING 218
SWIDTH 731 0
DWIDTH 7 0
BBX 5 8 1 0
BITMAP
20
88
88
88
88
88
88
70
ENDCHAR
STARTCHAR Ucircumflex
ENCODING 219
SWIDTH 731 0
DWIDTH 7 0
BBX 5 8 1 0
BITMAP
70
88
88
88
88
88
88
70
ENDCHAR
STARTCHAR Udieresis
ENCODING 220
SWIDTH 731 0
DWIDTH 7 0
BBX 5 8 1 0
BITMAP
50
88
88
88
88
88
88
70
ENDCHAR
STARTCHAR Yacute
ENCODING 221
SWIDTH 610 0
DWIDTH 6 0
BBX 6 8 0 0
BITMAP
20
84
48
30
30
20
20
20
ENDCHAR
STARTCHAR Thorn
ENCODING 222
SWIDTH 604 0
DWIDTH 6 0
BBX 5 7 1 0
BITMAP
80
80
F0
88
90
E0
80
ENDCHAR
STARTCHAR germandbls
ENCODING 223
SWIDTH 629 0
DWIDTH 6 0
BBX 5 7 1 0
BITMAP
60
90
A0
A0
90
88
F0
ENDCHAR
STARTCHAR agrave
ENCODING 224
SWIDTH 612 0
DWIDTH 6 0
BBX 5 7 0 0
BITMAP
20
00
70
08
78
88
78
ENDCHAR
STARTCHAR aacute
ENCODING 225
SWIDTH 612 0
DWIDTH 6 0
BBX 5 7 0 0
BITMAP
10
00
70
08
78
88
78
ENDCHAR
STARTCHAR acircumflex
ENCODING 226
SWIDTH 612 0
DWIDTH 6 0
BBX 5 7 0 0
BITMAP
30
00
70
08
78
88
78
ENDCHAR
STARTCHAR atilde
ENCODING 227
SWIDTH 612 0
DWIDTH 6 0
BBX 5 7 0 0
BITMAP
60
00
70
08
78
88
78
ENDCHAR
STARTCHAR adieresis
ENCODING 228
SWIDTH 612 0
DWIDTH 6 0
BBX 5 7 0 0
BITMAP
50
00
70
08
78
88
78
ENDCHAR
STARTCHAR aring
ENCODING 229
SWIDTH 612 0
DWIDTH 6 0
BBX 5 8 0 0
BITMAP
30
50
20
70
08
78
88
78
ENDCHAR
STARTCHAR ae
ENCODING 230
SWIDTH 981 0
DWIDTH 10 0
BBX 9 5 0 0
BITMAP
7700
0880
7F80
8800
7780
ENDCHAR
STARTCHAR ccedilla
ENCODING 231
SWIDTH 549 0
DWIDTH 5 0
BBX 5 7 0 -2
BITMAP
78
40
80
40
78
10
30
ENDCHAR
STARTCHAR egrave
ENCODING 232
SWIDTH 615 0
DWIDTH 6 0
BBX 5 7 1 0
BITMAP
40
00
F0
90
F8
80
70
ENDCHAR
STARTCHAR eacute
ENCODING 233
SWIDTH 615 0
DWIDTH 6 0
BBX 5 7 1 0
BITMAP
20
00
F0
90
F8
80
70
ENDCHAR
STARTCHAR ecircumflex
ENCODING 234
SWIDTH 615 0
DWIDTH 6 0
BBX 5 7 1 0
BITMAP
60
00
F0
90
F8
80
70
ENDCHAR
STARTCHAR edieresis
ENCODING 235
SWIDTH 615 0
DWIDTH 6 0
BBX 5 7 1 0
BITMAP
50
00
F0
90
F8
80
70
ENDCHAR
STARTCHAR igrave
ENCODING 236
SWIDTH 277 0
DWIDTH 3 0
BBX 2 7 0 0
BITMAP
80
00
40
40
40
40
40
ENDCHAR
STARTCHAR iacute
ENCODING 237
SWIDTH 277 0
DWIDTH 3 0
BBX 1 7 1 0
BITMAP
80
00
80
80
80
80
80
ENDCHAR
STARTCHAR icircumflex
ENCODING 238
SWIDTH 277 0
DWIDTH 3 0
BBX 2 7 0 0
BITMAP
C0
00
40
40
40
40
40
ENDCHAR
STARTCHAR idieresis
ENCODING 239
SWIDTH 277 0
DWIDTH 3 0
BBX 3 7 0 0
BITMAP
A0
00
40
40
40
40
40
ENDCHAR
STARTCHAR eth
ENCODING 240
SWIDTH 611 0
DWIDTH 6 0
BBX 5 7 0 0
BITMAP
38
50
78
48
88
48
78
ENDCHAR
STARTCHAR ntilde
ENCODING 241
SWIDTH 633 0
DWIDTH 6 0
BBX 4 7 1 0
BITMAP
30
00
F0
90
90
90
90
ENDCHAR
STARTCHAR ograve
ENCODING 242
SWIDTH 611 0
DWIDTH 6 0
BBX 5 7 0 0
BITMAP
20
00
78
48
88
48
78
ENDCHAR
STARTCHAR oacute
ENCODING 243
SWIDTH 611 0
DWIDTH 6 0
BBX 5 7 0 0
BITMAP
10
00
78
48
88
48
78
ENDCHAR
STARTCHAR ocircumflex
ENCODING 244
SWIDTH 611 0
DWIDTH 6 0
BBX 5 7 0 0
BITMAP
30
00
78
48
88
48
78
ENDCHAR
STARTCHAR otilde
ENCODING 245
SWIDTH 611 0
DWIDTH 6 0
BBX 5 7 0 0
BITMAP
20
10
78
48
88
48
78
ENDCHAR
STARTCHAR odieresis
ENCODING 246
SWIDTH 611 0
DWIDTH 6 0
BBX 5 7 0 0
BITMAP
30
00
78
48
88
48
78
ENDCHAR
STARTCHAR divide
ENCODING 247
SWIDTH 837 0
DWIDTH 8 0
BBX 6 4 1 1
BITMAP
10
00
FC
10
ENDCHAR
STARTCHAR oslash
ENCODING 248
SWIDTH 611 0
DWIDTH 6 0
BBX 4 5 1 0
BITMAP
F0
90
F0
90
F0
ENDCHAR
STARTCHAR ugrave
ENCODING 249
SWIDTH 633 0
DWIDTH 6 0
BBX 4 7 1 0
BITMAP
40
00
90
90
90
90
F0
ENDCHAR
STARTCHAR uacute
ENCODING 250
SWIDTH 633 0
DWIDTH 6 0
BBX 4 7 1 0
BITMAP
20
00
90
90
90
90
F0
ENDCHAR
STARTCHAR ucircumflex
ENCODING 251
SWIDTH 633 0
DWIDTH 6 0
BBX 4 7 1 0
BITMAP
60
00
90
90
90
90
F0
ENDCHAR
STARTCHAR udieresis
ENCODING 252
SWIDTH 633 0
DWIDTH 6 0
BBX 4 7 1 0
BITMAP
60
00
90
90
90
90
F0
ENDCHAR
STARTCHAR yacute
ENCODING 253
SWIDTH 591 0
DWIDTH 6 0
BBX 4 9 1 -2
BITMAP
20
00
10
90
A0
60
60
40
C0
ENDCHAR
STARTCHAR thorn
ENCODING 254
SWIDTH 634 0
DWIDTH 6 0
BBX 5 9 1 -2
BITMAP
80
80
F0
88
88
88
F0
80
80
ENDCHAR
STARTCHAR ydieresis
ENCODING 255
SWIDTH 591 0
DWIDTH 6 0
BBX 4 9 1 -2
BITMAP
A0
00
10
90
A0
60
60
40
C0
ENDCHAR
STARTCHAR Cacute
ENCODING 262
SWIDTH 698 0
DWIDTH 7 0
BBX 5 8 1 0
BITMAP
20
30
C0
80
80
80
80
78
ENDCHAR
STARTCHAR cacute
ENCODING 263
SWIDTH 549 0
DWIDTH 5 0
BBX 5 7 0 0
BITMAP
10
00
78
40
80
40
78
ENDCHAR
STARTCHAR Ccaron
ENCODING 268
SWIDTH 698 0
DWIDTH 7 0
BBX 5 8 1 0
BITMAP
30
30
C0
80
80
80
80
78
ENDCHAR
STARTCHAR ccaron
ENCODING 269
SWIDTH 549 0
DWIDTH 5 0
BBX 5 7 0 0
BITMAP
30
00
78
40
80
40
78
ENDCHAR
STARTCHAR dcroat
ENCODING 273
SWIDTH 634 0
DWIDTH 6 0
BBX 5 7 0 0
BITMAP
08
08
78
48
88
48
78
ENDCHAR
STARTCHAR Gbreve
ENCODING 286
SWIDTH 774 0
DWIDTH 8 0
BBX 6 8 1 0
BITMAP
30
30
CC
80
80
8C
84
78
ENDCHAR
STARTCHAR gbreve
ENCODING 287
SWIDTH 634 0
DWIDTH 6 0
BBX 5 9 0 -2
BITMAP
30
00
78
48
88
48
78
08
70
ENDCHAR
STARTCHAR Idotaccent
ENCODING 304
SWIDTH 294 0
DWIDTH 3 0
BBX 1 8 1 0
BITMAP
80
80
80
80
80
80
80
80
ENDCHAR
STARTCHAR dotlessi
ENCODING 305
SWIDTH 277 0
DWIDTH 3 0
BBX 1 5 1 0
BITMAP
80
80
80
80
80
ENDCHAR
STARTCHAR Lslash
ENCODING 321
SWIDTH 562 0
DWIDTH 6 0
BBX 5 7 0 0
BITMAP
40
40
50
60
C0
40
78
ENDCHAR
STARTCHAR lslash
ENCODING 322
SWIDTH 284 0
DWIDTH 3 0
BBX 2 7 1 0
BITMAP
80
80
C0
80
80
80
80
ENDCHAR
STARTCHAR OE
ENCODING 338
SWIDTH 1069 0
DWIDTH 11 0
BBX 9 7 1 0
BITMAP
3F80
C800
8800
8F80
8800
8800
7F80
ENDCHAR
STARTCHAR oe
ENCODING 339
SWIDTH 1022 0
DWIDTH 10 0
BBX 9 5 0 0
BITMAP
7F80
4C80
8F80
4C00
7F80
ENDCHAR
STARTCHAR Scedilla
ENCODING 350
SWIDTH 634 0
DWIDTH 6 0
BBX 5 9 1 -2
BITMAP
70
80
80
F0
18
08
F0
20
60
ENDCHAR
STARTCHAR scedilla
ENCODING 351
SWIDTH 520 0
DWIDTH 5 0
BBX 5 7 0 -2
BITMAP
70
80
70
08
70
00
20
ENDCHAR
STARTCHAR Scaron
ENCODING 352
SWIDTH 634 0
DWIDTH 6 0
BBX 5 8 1 0
BITMAP
60
70
80
80
F0
18
08
F0
ENDCHAR
STARTCHAR scaron
ENCODING 353
SWIDTH 520 0
DWIDTH 5 0
BBX 5 7 0 0
BITMAP
10
20
70
80
70
08
70
ENDCHAR
STARTCHAR Ydieresis
ENCODING 376
SWIDTH 610 0
DWIDTH 6 0
BBX 6 8 0 0
BITMAP
30
84
48
30
30
20
20
20
ENDCHAR
STARTCHAR Zcaron
ENCODING 381
SWIDTH 685 0
DWIDTH 7 0
BBX 6 8 0 0
BITMAP
10
7C
04
08
10
20
40
FC
ENDCHAR
STARTCHAR zcaron
ENCODING 382
SWIDTH 524 0
DWIDTH 5 0
BBX 5 7 0 0
BITMAP
10
20
78
10
20
40
F8
ENDCHAR
STARTCHAR florin
ENCODING 402
SWIDTH 636 0
DWIDTH 6 0
BBX 6 9 0 -2
BITMAP
0C
10
10
38
10
20
20
20
C0
ENDCHAR
STARTCHAR circumflex
ENCODING 710
SWIDTH 500 0
DWIDTH 5 0
BBX 1 1 2 6
BITMAP
80
ENDCHAR
STARTCHAR caron
ENCODING 711
SWIDTH 500 0
DWIDTH 5 0
BBX 2 2 1 5
BITMAP
80
40
ENDCHAR
STARTCHAR breve
ENCODING 728
SWIDTH 500 0
DWIDTH 5 0
BBX 3 1 1 6
BITMAP
E0
ENDCHAR
STARTCHAR dotaccent
ENCODING 729
SWIDTH 500 0
DWIDTH 5 0
BBX 1 1 2 6
BITMAP
80
ENDCHAR
STARTCHAR ring
ENCODING 730
SWIDTH 500 0
DWIDTH 5 0
BBX 3 3 1 5
BITMAP
E0
A0
40
ENDCHAR
STARTCHAR ogonek
ENCODING 731
SWIDTH 500 0
DWIDTH 5 0
BBX 1 1 2 -2
BITMAP
80
ENDCHAR
STARTCHAR tilde
ENCODING 732
SWIDTH 500 0
DWIDTH 5 0
BBX 3 1 1 6
BITMAP
E0
ENDCHAR
STARTCHAR hungarumlaut
ENCODING 733
SWIDTH 500 0
DWIDTH 5 0
BBX 1 1 3 6
BITMAP
80
ENDCHAR
STARTCHAR Omega
ENCODING 937
SWIDTH 764 0
DWIDTH 8 0
BBX 7 7 0 0
BITMAP
18
64
42
82
42
44
EE
ENDCHAR
STARTCHAR pi
ENCODING 960
SWIDTH 588 0
DWIDTH 6 0
BBX 6 5 0 0
BITMAP
FC
C8
50
50
18
ENDCHAR
STARTCHAR endash
ENCODING 8211
SWIDTH 500 0
DWIDTH 5 0
BBX 5 1 0 2
BITMAP
F8
ENDCHAR
STARTCHAR emdash
ENCODING 8212
SWIDTH 1000 0
DWIDTH 10 0
BBX 10 1 0 2
BITMAP
FFC0
ENDCHAR
STARTCHAR quoteleft
ENCODING 8216
SWIDTH 317 0
DWIDTH 3 0
BBX 1 2 1 4
BITMAP
80
80
ENDCHAR
STARTCHAR quoteright
ENCODING 8217
SWIDTH 317 0
DWIDTH 3 0
BBX 1 2 1 5
BITMAP
80
80
ENDCHAR
STARTCHAR quotesinglbase
ENCODING 8218
SWIDTH 317 0
DWIDTH 3 0
BBX 1 2 1 -1
BITMAP
80
80
ENDCHAR
STARTCHAR quotedblleft
ENCODING 8220
SWIDTH 518 0
DWIDTH 5 0
BBX 3 3 1 4
BITMAP
20
A0
A0
ENDCHAR
STARTCHAR quotedblright
ENCODING 8221
SWIDTH 518 0
DWIDTH 5 0
BBX 3 2 1 5
BITMAP
A0
A0
ENDCHAR
STARTCHAR quotedblbase
ENCODING 8222
SWIDTH 518 0
DWIDTH 5 0
BBX 3 2 1 -1
BITMAP
A0
A0
ENDCHAR
STARTCHAR dagger
ENCODING 8224
SWIDTH 500 0
DWIDTH 5 0
BBX 5 8 0 -1
BITMAP
20
20
F8
20
20
20
20
20
ENDCHAR
STARTCHAR daggerdbl
ENCODING 8225
SWIDTH 500 0
DWIDTH 5 0
BBX 5 8 0 -1
BITMAP
20
20
F8
20
20
F8
20
20
ENDCHAR
STARTCHAR bullet
ENCODING 8226
SWIDTH 589 0
DWIDTH 6 0
BBX 3 3 1 2
BITMAP
60
E0
60
ENDCHAR
STARTCHAR ellipsis
ENCODING 8230
SWIDTH 1000 0
DWIDTH 10 0
BBX 8 1 1 0
BITMAP
91
ENDCHAR
STARTCHAR perthousand
ENCODING 8240
SWIDTH 1341 0
DWIDTH 13 0
BBX 13 7 0 0
BITMAP
6200
9400
9400
6800
17F0
14C8
2330
ENDCHAR
STARTCHAR guilsinglleft
ENCODING 8249
SWIDTH 399 0
DWIDTH 4 0
BBX 2 3 1 1
BITMAP
40
80
40
ENDCHAR
STARTCHAR guilsinglright
ENCODING 8250
SWIDTH 399 0
DWIDTH 4 0
BBX 2 3 1 1
BITMAP
80
40
80
ENDCHAR
STARTCHAR Euro
ENCODING 8364
SWIDTH 636 0
DWIDTH 6 0
BBX 6 7 0 0
BITMAP
18
64
40
70
F0
40
38
ENDCHAR
STARTCHAR trademark
ENCODING 8482
SWIDTH 1000 0
DWIDTH 10 0
BBX 7 3 1 4
BITMAP
F2
5E
52
ENDCHAR
STARTCHAR partialdiff
ENCODING 8706
SWIDTH 517 0
DWIDTH 5 0
BBX 5 6 0 0
BITMAP
30
10
28
58
90
60
ENDCHAR
STARTCHAR Delta
ENCODING 8710
SWIDTH 668 0
DWIDTH 7 0
BBX 6 7 0 0
BITMAP
10
30
28
48
44
44
FC
ENDCHAR
STARTCHAR product
ENCODING 8719
SWIDTH 756 0
DWIDTH 8 0
BBX 6 9 1 -2
BITMAP
FC
84
84
84
84
84
84
84
84
ENDCHAR
STARTCHAR summation
ENCODING 8721
SWIDTH 673 0
DWIDTH 7 0
BBX 6 9 0 -2
BITMAP
FC
40
20
10
08
10
20
40
FC
ENDCHAR
STARTCHAR minus
ENCODING 8722
SWIDTH 837 0
DWIDTH 8 0
BBX 6 1 1 2
BITMAP
FC
ENDCHAR
STARTCHAR fraction
ENCODING 8725
SWIDTH 166 0
DWIDTH 2 0
BBX 4 5 -1 1
BITMAP
10
20
40
40
80
ENDCHAR
STARTCHAR periodcentered
ENCODING 8729
SWIDTH 317 0
DWIDTH 3 0
BBX 1 1 1 3
BITMAP
80
ENDCHAR
STARTCHAR radical
ENCODING 8730
SWIDTH 637 0
DWIDTH 6 0
BBX 4 6 1 0
BITMAP
10
10
A0
A0
60
40
ENDCHAR
STARTCHAR infinity
ENCODING 8734
SWIDTH 833 0
DWIDTH 8 0
BBX 6 3 1 1
BITMAP
FC
24
FC
ENDCHAR
STARTCHAR integral
ENCODING 8747
SWIDTH 520 0
DWIDTH 5 0
BBX 4 9 1 -2
BITMAP
30
40
40
40
40
40
40
40
80
ENDCHAR
STARTCHAR approxequal
ENCODING 8776
SWIDTH 837 0
DWIDTH 8 0
BBX 6 3 1 1
BITMAP
FC
60
1C
ENDCHAR
STARTCHAR notequal
ENCODING 8800
SWIDTH 837 0
DWIDTH 8 0
BBX 6 5 1 0
BITMAP
08
FC
20
58
40
ENDCHAR
STARTCHAR lessequal
ENCODING 8804
SWIDTH 837 0
DWIDTH 8 0
BBX 6 5 1 0
BITMAP
1C
E0
38
04
FC
ENDCHAR
STARTCHAR greaterequal
ENCODING 8805
SWIDTH 837 0
DWIDTH 8 0
BBX 6 5 1 0
BITMAP
E0
1C
38
C0
FC
ENDCHAR
STARTCHAR lozenge
ENCODING 9674
SWIDTH 494 0
DWIDTH 5 0
BBX 5 9 0 -2
BITMAP
20
60
50
90
88
90
50
60
20
ENDCHAR
STARTCHAR fi
ENCODING 64257
SWIDTH 629 0
DWIDTH 6 0
BBX 5 7 0 0
BITMAP
78
40
F8
48
48
48
48
ENDCHAR
STARTCHAR fl
ENCODING 64258
SWIDTH 629 0
DWIDTH 6 0
BBX 5 7 0 0
BITMAP
78
48
E8
48
48
48
48
ENDCHAR
STARTCHAR .notdef
ENCODING -1
SWIDTH 600 0
DWIDTH 6 0
BBX 5 8 0 -2
BITMAP
F8
88
88
88
88
88
88
F8
ENDCHAR
STARTCHAR .null
ENCODING -1
SWIDTH 0 0
DWIDTH 0 0
BBX 1 1 0 0
BITMAP
00
ENDCHAR
STARTCHAR nonmarkingreturn
ENCODING -1
SWIDTH 317 0
DWIDTH 3 0
BBX 1 1 0 0
BITMAP
00
ENDCHAR
STARTCHAR c6459
ENCODING -1
SWIDTH 500 0
DWIDTH 5 0
BBX 3 1 1 6
BITMAP
A0
ENDCHAR
STARTCHAR c6460
ENCODING -1
SWIDTH 500 0
DWIDTH 5 0
BBX 1 1 2 6
BITMAP
80
ENDCHAR
STARTCHAR c6461
ENCODING -1
SWIDTH 500 0
DWIDTH 5 0
BBX 3 2 1 5
BITMAP
A0
40
ENDCHAR
STARTCHAR c6462
ENCODING -1
SWIDTH 500 0
DWIDTH 5 0
BBX 1 1 3 5
BITMAP
00
ENDCHAR
STARTCHAR c6463
ENCODING -1
SWIDTH 500 0
DWIDTH 5 0
BBX 1 1 2 6
BITMAP
80
ENDCHAR
STARTCHAR c6466
ENCODING -1
SWIDTH 500 0
DWIDTH 5 0
BBX 3 2 1 5
BITMAP
A0
40
ENDCHAR
STARTCHAR c6467
ENCODING -1
SWIDTH 400 0
DWIDTH 4 0
BBX 3 4 0 3
BITMAP
20
60
A0
60
ENDCHAR
STARTCHAR c6468
ENCODING -1
SWIDTH 500 0
DWIDTH 5 0
BBX 3 2 1 5
BITMAP
A0
40
ENDCHAR
STARTCHAR c6469
ENCODING -1
SWIDTH 500 0
DWIDTH 5 0
BBX 1 1 2 6
BITMAP
80
ENDCHAR
ENDFONT
